<svg xmlns="http://www.w3.org/2000/svg" viewBox="0 0 512 43.91"><defs><style>.c1{fill:none;}.c2{fill:#0c1539;}</style></defs><path class="c1" d="M133,11.77c-18.72,6.58-36.43,16-55.32,22.05A113.18,113.18,0,0,1,59,38.11C72.88,41,88,40.63,100.55,39.83s23.92-4.87,35.32-9.78c13.28-5.71,26.15-12.31,39.45-18C180.58,9.81,186,7.65,191.46,5.8a55.47,55.47,0,0,0-5.8-1.56C168.27.47,149.36,6,133,11.77Z"/><path class="c1" d="M7.33,26.63l.09-.24H7.33Z"/><path class="c1" d="M224,9.16a12.54,12.54,0,0,0-4.1,7.71c5.65-6.62,16.28-8.87,25.42-6.79A45.54,45.54,0,0,0,234,5.62C230.32,6.17,227.09,6.47,224,9.16Z"/><path class="c1" d="M266.7,10.08c9.14-2.08,19.77.17,25.43,6.79A12.61,12.61,0,0,0,288,9.16c-3.12-2.69-6.34-3-10-3.54A45.54,45.54,0,0,0,266.7,10.08Z"/><path class="c1" d="M504.59,26.39a2.25,2.25,0,0,0,.08.24V26.4Z"/><path class="c1" d="M379,11.77C362.64,6,343.73.47,326.34,4.24a55.47,55.47,0,0,0-5.8,1.56c5.49,1.85,10.88,4,16.14,6.26,13.3,5.68,26.17,12.28,39.45,18,11.4,4.91,22.87,9,35.32,9.78s27.67,1.12,41.6-1.72a113.18,113.18,0,0,1-18.76-4.29C415.4,27.75,397.69,18.35,379,11.77Z"/><path class="c2" d="M509.18,20.92a7,7,0,0,0-6.16.44,3.43,3.43,0,0,0-1,1.1,1.75,1.75,0,0,0-1.25,1.27,13.26,13.26,0,0,0-.33,5.4,90.32,90.32,0,0,1-11.32,4.55,80.21,80.21,0,0,1-19.77,2c8.78-4.11,16.37-10.28,20.47-19.52.39-.87-.81-1.63-1.3-.76-5.58,9.92-14.49,16.06-24.8,19.78l-.47-.14c-7-2.2-14.12-10.88-8.22-17.72,1.92-2.22,5.07-3.78,8-2.84a4.78,4.78,0,0,1,3,3.29,2.73,2.73,0,0,1,0,2.37,1.64,1.64,0,0,0-1.08-1.05,18.7,18.7,0,0,0-4-.8A1.75,1.75,0,0,0,459.17,20c0,1.18,0,2.35-.08,3.53a1.85,1.85,0,0,0,1.81,1.81c4.2.45,9.63-1.77,8.74-6.91a7.84,7.84,0,0,0-7.33-6.7c-8.15-.13-14.6,8.35-11.77,16.1a15.1,15.1,0,0,0,4.87,6.77c-12.66-1.83-24.61-5.94-36.59-10.87-19.37-8-38.51-17.23-59.16-21.46C345.36-.67,330-1.53,316.37,4.46A86.43,86.43,0,0,0,289.16.33c-11.63.3-21.52,5.05-29.55,12.47A20,20,0,0,0,256,15.41a20,20,0,0,0-3.61-2.61C244.36,5.38,234.47.63,222.84.33a86.43,86.43,0,0,0-27.21,4.13c-13.65-6-29-5.13-43.29-2.19C131.69,6.5,112.55,15.76,93.17,23.73c-12,4.93-23.92,9-36.58,10.87a15.1,15.1,0,0,0,4.87-6.77c2.83-7.75-3.62-16.23-11.77-16.1a7.84,7.84,0,0,0-7.33,6.7c-.89,5.14,4.54,7.36,8.74,6.91a1.85,1.85,0,0,0,1.81-1.81c-.06-1.18-.07-2.35-.08-3.53a1.75,1.75,0,0,0-1.73-1.74,18.7,18.7,0,0,0-4,.8A1.64,1.64,0,0,0,46,20.11,2.73,2.73,0,0,1,46,17.74a4.78,4.78,0,0,1,3-3.29c2.9-.94,6.05.62,8,2.84,5.9,6.84-1.22,15.52-8.22,17.72l-.47.14C37.94,31.43,29,25.29,23.45,15.37c-.49-.87-1.69-.11-1.3.76,4.1,9.24,11.69,15.41,20.47,19.52a80.21,80.21,0,0,1-19.77-2,90.32,90.32,0,0,1-11.32-4.55,13.44,13.44,0,0,0-.33-5.4A1.75,1.75,0,0,0,10,22.46a3.43,3.43,0,0,0-1-1.1,7,7,0,0,0-6.16-.44c-3.17,1.29-3.54,4.69-1.75,7.33,1.4,2.06,4.14,4.63,6.88,4.28a3.93,3.93,0,0,0,2.54-1.22,50.24,50.24,0,0,0,14.63,5.91,63.73,63.73,0,0,0,9.34,1.92,40.71,40.71,0,0,0,10.18,0c2.16,0,4.31-.11,6.47-.26a89.82,89.82,0,0,0,10.22,2.56,138.62,138.62,0,0,0,26.44,2.29c7.35,0,14.91,0,22.19-1.15,12.53-1.92,24.24-7.1,35.68-12.34,13.33-6.11,26.45-12.78,40.17-18,3.73-1.42,7.55-2.8,11.44-4a20.67,20.67,0,0,1,6.36,5.24c2.42,3.1,4.12,7.87,2.08,11.6a18.45,18.45,0,0,1-10.21,8.18c-4.61,1.48-11,2.19-12.68-3.71-.82-2.88-.1-7.81,4-6.06a1.63,1.63,0,1,0,1.26-3c-4.62-1.67-8.2,1.93-8.32,6.51a10.33,10.33,0,0,0,9.08,10.59c8.22,1.07,20.14-5,20.93-14.17.58-6.76-3.7-12.47-9.08-16.2,8-2.23,16.18-3.6,24.38-3,.8,0,1.6.13,2.39.22a15.54,15.54,0,0,0-5,3.25c-3.33,3.39-4.53,7.66-4.63,12.31a.9.9,0,0,0,1.66.45c4-6.42,13.4-8.18,20.37-7.85,5.24.25,10.41,1.52,14.57,4.35a16.86,16.86,0,0,0-3.11,5.21l-.31.42c-.37.52.47,1,.85.49A49.64,49.64,0,0,1,256,18.31a49.64,49.64,0,0,1,4.09,4.76c.38.5,1.22,0,.85-.49l-.31-.42A16.67,16.67,0,0,0,257.52,17c4.16-2.83,9.33-4.1,14.57-4.35,7-.33,16.39,1.43,20.36,7.85a.9.9,0,0,0,1.67-.45c-.1-4.65-1.3-8.92-4.63-12.31a15.54,15.54,0,0,0-4.95-3.25c.79-.09,1.59-.17,2.4-.22,8.19-.55,16.4.82,24.36,3.05-5.38,3.73-9.65,9.44-9.07,16.2.79,9.15,12.71,15.24,20.93,14.17a10.33,10.33,0,0,0,9.08-10.59c-.12-4.58-3.7-8.18-8.32-6.51a1.63,1.63,0,1,0,1.26,3c4.12-1.75,4.84,3.18,4,6.06-1.69,5.9-8.06,5.19-12.67,3.71a18.45,18.45,0,0,1-10.21-8.18c-2-3.73-.34-8.5,2.08-11.6a20.67,20.67,0,0,1,6.36-5.24c3.89,1.2,7.71,2.58,11.44,4,13.71,5.22,26.84,11.89,40.17,18C377.8,35.53,389.51,40.71,402,42.63c7.28,1.11,14.84,1.15,22.19,1.15a138.69,138.69,0,0,0,26.44-2.29,89.82,89.82,0,0,0,10.22-2.56c2.16.15,4.31.23,6.47.26a40.71,40.71,0,0,0,10.18,0,64,64,0,0,0,9.34-1.92,50.24,50.24,0,0,0,14.63-5.91,3.93,3.93,0,0,0,2.54,1.22c2.74.35,5.48-2.22,6.88-4.28C512.72,25.61,512.35,22.21,509.18,20.92ZM7.33,26.63V26.4h.09Zm168-14.57c-13.3,5.68-26.17,12.28-39.45,18C124.47,35,113,39,100.55,39.83S72.88,41,59,38.11a113.18,113.18,0,0,0,18.76-4.29c18.89-6.07,36.6-15.47,55.32-22C149.36,6,168.27.47,185.66,4.24a55.47,55.47,0,0,1,5.8,1.56C186,7.65,180.58,9.81,175.32,12.06Zm44.56,4.81A12.54,12.54,0,0,1,224,9.16c3.11-2.69,6.34-3,10-3.54a45.54,45.54,0,0,1,11.35,4.46C236.16,8,225.53,10.25,219.88,16.87ZM288,9.16a12.61,12.61,0,0,1,4.11,7.71c-5.66-6.62-16.29-8.87-25.43-6.79a45.54,45.54,0,0,1,11.35-4.46C281.68,6.17,284.9,6.47,288,9.16ZM411.45,39.83C399,39,387.53,35,376.13,30.05c-13.28-5.71-26.15-12.31-39.45-18C331.42,9.81,326,7.65,320.54,5.8a55.47,55.47,0,0,1,5.8-1.56C343.73.47,362.64,6,379,11.77c18.72,6.58,36.43,16,55.32,22.05a113.18,113.18,0,0,0,18.76,4.29C439.12,41,424,40.63,411.45,39.83Zm93.14-13.44h.08v.23A2.25,2.25,0,0,1,504.59,26.39Z"/></svg>
