<svg xmlns="http://www.w3.org/2000/svg" viewBox="0 0 1451.34 559.69"><defs><style>.r{fill:#9c0000;}.t{fill:none;}.p{fill:#13042b;}</style></defs><path class="r" d="M620.64,461.43a26.8,26.8,0,0,0-5.24.92,33,33,0,0,0-8,3.08,46.64,46.64,0,0,0-8,5.55,27,27,0,0,0-5.85,7.39c2.16,0,3.7,0,4.31.31a1.86,1.86,0,0,1,.93,1.85c0,2.15-.62,3.69-2.16,4.62a8.73,8.73,0,0,1-4.62,1.23,21.61,21.61,0,0,0,6.16,14.48c3.7,3.69,9.24,5.54,16.94,5.54a36.62,36.62,0,0,0,15.71-3.08,43.21,43.21,0,0,0,20-19.1,24.55,24.55,0,0,0,2.77-11.09,20.32,20.32,0,0,0-1.84-8.31,21.25,21.25,0,0,0-5.55-7.39,33,33,0,0,0-9.85-5.55,38.59,38.59,0,0,0-13.86-2.15c-6.16,0-10.48.61-12.94,2.15a16,16,0,0,0-5.24,4.62h-1.23c-3.39-3.39-5.24-6.47-5.24-9.24,0-3.08,1.85-5.54,5.55-7.08a36,36,0,0,1,13.86-2.47,68.47,68.47,0,0,1,16.63,2.16,73.81,73.81,0,0,1,16.94,6.47,45.29,45.29,0,0,1,13.25,10.78,23.1,23.1,0,0,1,5.54,15.4,26.81,26.81,0,0,1-5.54,16.32,52.45,52.45,0,0,1-14.17,12.94,78.65,78.65,0,0,1-19.41,8.62,72.24,72.24,0,0,1-21.25,3.08,57,57,0,0,1-12.94-1.54,22.87,22.87,0,0,1-10.16-5.23,21.36,21.36,0,0,1-6.16-9.24c-1.23-3.7-1.23-8.32-.31-13.86l-17.86-3.08c-.93,11.09-2.78,19.4-5.24,25s-6.47,8.31-11.7,8.31a8.7,8.7,0,0,1-4.62-.92,8.29,8.29,0,0,1-2.16-2.47v-1.23a23.54,23.54,0,0,0,7.39-11.09,96.23,96.23,0,0,0,3.7-18.79,28.29,28.29,0,0,0-5.55-.61c-2.15,0-3.38.31-3.69.61h-1.23a7.14,7.14,0,0,1-3.08-3.69,11.11,11.11,0,0,1-.93-3.39c0-1.54,1.54-2.46,4.62-2.46a39.46,39.46,0,0,1,10.47,1.84,147.71,147.71,0,0,0,1.85-19.09c.31-7.39.62-15.71.62-25.26,0-8.93-.31-18.17-.62-27.72S551,381,550.41,372.41s-1.23-16.32-1.85-23.1-1.23-11.7-1.54-15.09q-.46-4.16-1.85-11.09a108.9,108.9,0,0,1-1.84-13.55,43,43,0,0,1,.3-11.09c.62-3.08,2.16-4.62,4.32-4.62a6,6,0,0,1,5.23,3.39,38.88,38.88,0,0,1,3.39,8,51.24,51.24,0,0,1,1.85,9.85c.31,3.39.61,6.16.61,8.32a23.09,23.09,0,0,1-.92,7.08c-.62,1.85-1.54,2.78-3.08,2.78,2.16,16,4.31,32.95,6.16,50.51A518.69,518.69,0,0,1,564,438c0,7.09,0,13.25-.31,18.48s-.61,10.17-1.23,15.09L582.75,475a31.78,31.78,0,0,1,14.17-12.63,46.75,46.75,0,0,1,20.33-4.62A11,11,0,0,1,623.1,459v1.54Z"/><path class="r" d="M764.17,460.81a92.87,92.87,0,0,0-17.25-12l-98.25-54.52a149.75,149.75,0,0,1-21.87-13.86c-5.86-4.62-8.94-9.85-8.94-16q0-8.79,8.32-16.64T648.36,333a215.61,215.61,0,0,1,31.41-12.63q17.57-5.55,36-10.16c10.17-2.47,20.33-4.63,30.19-6.47s19.4-3.39,28.33-4.62,16.95-2.16,24-2.78,12.94-.92,17.56-.92h6.46a33.83,33.83,0,0,1,8,.92c2.47.62,4.62,1.24,6.47,1.85s2.77,1.54,2.77,2.77c0,1.85-1.84,4-5.54,6.17a25.35,25.35,0,0,1-12.94,3.38,12,12,0,0,1-4-.61A14.94,14.94,0,0,1,815,309a15,15,0,0,0-2.77-.92,27.86,27.86,0,0,0-6.47-.62c-3.08,0-7.39.31-13.24.93s-12.63,1.23-20.33,2.15-16.33,2.16-25.57,4-18.78,4-29,6.47c-10.78,2.77-20.95,5.85-30.8,9.24a247.35,247.35,0,0,0-26.49,10.47,73.65,73.65,0,0,0-18.48,12c-4.62,4.31-6.78,8.93-6.78,13.55,0,3.39,1.54,6.47,4.32,9.55s7.39,6.47,13.86,10.47L742,437.4l16.94,9.25A89.8,89.8,0,0,1,771.56,455a32,32,0,0,1,8,9.24,26.38,26.38,0,0,1,2.77,12.63,37,37,0,0,1-2.77,13.86,32.37,32.37,0,0,1-8.32,12A42.23,42.23,0,0,1,756.47,511c-6.16,2.16-13.55,3.08-22.18,3.08-10.47,0-18.48-1.85-24.33-5.54s-8.62-8.94-8.62-15.4a20.57,20.57,0,0,1,4-12.63,49.53,49.53,0,0,1,9.86-9.86,45.31,45.31,0,0,1,12-6.47,33.47,33.47,0,0,1,11.4-2.15,18.1,18.1,0,0,1,3.69.3,7.11,7.11,0,0,1,3.7,1.85v1.23a46.64,46.64,0,0,0-9.24,3.08,58.91,58.91,0,0,0-9.55,5.55,35,35,0,0,0-7.7,7.39,14.5,14.5,0,0,0-3.08,9.24c0,10.17,7.08,15.09,20.94,15.09A39.79,39.79,0,0,0,753.08,503a28.09,28.09,0,0,0,10.17-6.77,28.63,28.63,0,0,0,5.54-9.24,27.63,27.63,0,0,0,1.85-9.55Q770.64,466.82,764.17,460.81Z"/><path class="r" d="M855,460.81c-1.24,0-3.39.62-6.47,1.85a58.44,58.44,0,0,0-9.86,4.93,32.66,32.66,0,0,0-8.93,8.32,18.63,18.63,0,0,0-3.7,11.39c0,4.93,2.16,9.24,6.16,12.94s10.17,5.54,18.48,5.54a40.52,40.52,0,0,0,16.33-3.08,45.93,45.93,0,0,0,12.63-7.7,33.87,33.87,0,0,0,8-10.78,26.66,26.66,0,0,0,2.78-11.09,18.22,18.22,0,0,0-2.16-8.93,24.46,24.46,0,0,0-6.47-7.39,37,37,0,0,0-10.47-5.54,44.59,44.59,0,0,0-15.09-2.16c-6.47,0-11.09.62-13.56,2.16a15.87,15.87,0,0,0-5.23,4.62h-1.23c-3.39-3.39-5.24-6.47-5.24-9.24,0-3.09,1.85-5.55,5.54-7.09A38.29,38.29,0,0,1,851,437.1a75.64,75.64,0,0,1,17.56,2.15,81.89,81.89,0,0,1,17.86,6.47,44,44,0,0,1,13.86,10.78,23.06,23.06,0,0,1,5.55,15.4,25.94,25.94,0,0,1-5.55,16,52.15,52.15,0,0,1-14.17,12.94,76.73,76.73,0,0,1-19.71,8.62A79.06,79.06,0,0,1,844,512.56a80.58,80.58,0,0,1-12.32-.92,28.27,28.27,0,0,1-10.48-3.7,25.39,25.39,0,0,1-7.39-6.47,14.94,14.94,0,0,1-2.77-9.24,24,24,0,0,1,3.7-12.63,43.91,43.91,0,0,1,9.24-10.78,58.63,58.63,0,0,1,12.62-8,32.08,32.08,0,0,1,13.56-3.08,10.49,10.49,0,0,1,5.54,1.24v1.54Z"/><path class="r" d="M921.56,454.65a41.19,41.19,0,0,1-5.23-.3l-7.39-.93a24.34,24.34,0,0,1-6.78-1.85c-2.16-.92-3.08-2.15-3.08-3.69q0-2.78,3.7-4.62a14,14,0,0,1,5.54-1.85l.92.92c0,1.23.93,2.16,2.47,2.78a23.13,23.13,0,0,0,5.85,1.54,60.89,60.89,0,0,0,7.39.3H932a136.81,136.81,0,0,1-4.31-21.87,216.62,216.62,0,0,1-1.54-25.25,197.76,197.76,0,0,1,3.69-37.89,93.32,93.32,0,0,1,13.86-34.19,77.92,77.92,0,0,1,27.72-24.95c11.71-6.47,26.8-9.55,45.28-9.55,24,0,43.12,5.86,57,17.25s21,27.72,21,49a73.31,73.31,0,0,1-5.24,28A66.31,66.31,0,0,1,1075,409.38a96.77,96.77,0,0,1-21.57,16.32,167.36,167.36,0,0,1-27.1,12,241.24,241.24,0,0,1-41.58,10.17c-14.17,2.15-26.8,4-37.89,5.23.93,2.47,2.47,5.55,4.31,9.24a57,57,0,0,0,6.16,9.55h1.24a45,45,0,0,1,16.63-9.85,86.82,86.82,0,0,1,19.71-4.32,24.52,24.52,0,0,1,4.93-.61H1005a89,89,0,0,1,18.48,1.85,62.17,62.17,0,0,1,15.09,4.92,27.43,27.43,0,0,1,10.16,8.32,18.61,18.61,0,0,1-.92,23.41,36.61,36.61,0,0,1-12,9.24,66.81,66.81,0,0,1-17.25,5.54,103.7,103.7,0,0,1-19.71,1.85,80.29,80.29,0,0,1-8.32-.31c-3.08-.3-6.16-.61-9.55-1.23a66.36,66.36,0,0,1-9.24-2.46,22.13,22.13,0,0,1-7.08-3.7,9.78,9.78,0,0,1-4-8,7.94,7.94,0,0,1,2.78-6.46,11,11,0,0,1,7.08-2.47,9.07,9.07,0,0,1,4.93,1.23l.61.93a8.73,8.73,0,0,0-1.23,4.62c0,4,2.47,6.77,7.39,8.62s11.4,2.77,19.1,2.77q20.79,0,30.49-6.46c6.47-4.32,9.86-9.24,9.86-14.48a11.66,11.66,0,0,0-3.7-8.63,29.26,29.26,0,0,0-8.62-6.16,58.19,58.19,0,0,0-11.09-3.69,51.82,51.82,0,0,0-11.7-1.23,84,84,0,0,0-11.71.92,80.53,80.53,0,0,0-12.32,2.77,46.62,46.62,0,0,0-10.47,4.62,13.74,13.74,0,0,0-5.85,6.16l1.23,3.39-.62,1.23a7.41,7.41,0,0,1-5.54,2.16,14.82,14.82,0,0,1-9.24-3.39,32.44,32.44,0,0,1-7.39-8.32,67.22,67.22,0,0,1-5.55-10.47c-1.54-3.69-2.77-7.08-3.69-9.85H923.72ZM1015.82,304c-15.71,0-28.65,2.78-38.81,8.63a68.3,68.3,0,0,0-24,22.79,94.57,94.57,0,0,0-12.32,31.42,166.65,166.65,0,0,0-3.69,34.5,158.46,158.46,0,0,0,1.84,24.95,136.28,136.28,0,0,0,4.93,21.25q12.48-1.38,27.72-3.7c10.17-1.54,20.33-3.69,30.8-6.16a207.09,207.09,0,0,0,30.5-9.85,106.19,106.19,0,0,0,26.49-15.1,72.48,72.48,0,0,0,18.48-21.56c4.62-8.31,7.08-18.17,7.08-29.57,0-9.55-1.54-17.86-4.93-25.25a49.33,49.33,0,0,0-14.16-18.48,62.23,62.23,0,0,0-21.57-11.09,96.44,96.44,0,0,0-27.41-3.7Z"/><path class="t" d="M1153.68,351.92l1.6-9.08A54,54,0,0,0,1153.68,351.92Z"/><path class="p" d="M1442.36,279,1365,265.34c1,.47,2,1,2.94,1.51a69.87,69.87,0,0,1,8.19,5.09l3.73,3,1.86,1.54,1.72,1.64,3.44,3.33.22.21c.2.22-.31-.36.49.53l.08.1.35.4.68.81,1.37,1.63a76.53,76.53,0,0,1,6,8.14c1,1.52,1.7,3,2.57,4.54a39.19,39.19,0,0,1,2.27,4.65l2,4.84c.54,1.65,1,3.33,1.49,5,.23.84.48,1.68.68,2.53l.46,2.56c.27,1.71.65,3.42.82,5.14a84.42,84.42,0,0,1,.47,10.27,89.1,89.1,0,0,1-.67,10.12c-.15,1.68-.52,3.29-.79,4.94s-.54,3.29-1,4.86a148.09,148.09,0,0,1-13.73,35.59,240.14,240.14,0,0,1-19.34,30.12,318.37,318.37,0,0,1-21.14,25.32c-3.5,3.87-7,7.5-10.5,11l-5.11,5.09-5,4.77c-6.61,6.2-12.85,11.66-18.49,16.35s-10.68,8.64-14.84,11.86q-4.14,3.12-7.1,5.27c57.31,2.1,97.5,7,97.5,12.7,0,7.62-71.61,13.79-159.94,13.79q-9.6,0-18.9-.09l185.55,32.71a10.89,10.89,0,0,0,12.58-8.81l45.28-256.81A10.89,10.89,0,0,0,1442.36,279Z"/><path class="p" d="M1237.94,497q-6.09-4.35-12.76-9.46c-7.63-5.83-15.52-12.64-23.68-20.09a290.11,290.11,0,0,1-24.28-25,222.13,222.13,0,0,1-22.19-30.5,160.26,160.26,0,0,1-8.91-17.14l-18.44,104.53c0,.21,0,.41-.07.62,27.24-1.85,61.64-3,99.05-3Q1232.35,497,1237.94,497Z"/><path class="p" d="M1200.78,287a82.3,82.3,0,0,1,17.27-.32,93.45,93.45,0,0,1,15.61,2.61,118.15,118.15,0,0,1,25.26,9.55,133.91,133.91,0,0,1,13.37,7.76c.34-.67.85-1.62,1.57-2.82a89.39,89.39,0,0,1,7-10.38A100.32,100.32,0,0,1,1294.34,279a82.84,82.84,0,0,1,22.36-14.29,64.68,64.68,0,0,1,15.48-4.35c.89-.14,1.8-.25,2.71-.34L1185.55,233.7a10.89,10.89,0,0,0-12.58,8.8l-10.77,61.09,3.47-2.68A75,75,0,0,1,1200.78,287Z"/><path class="r" d="M1293.35,489.92c3.5-3.88,7.72-8.62,12.42-14.15s10-11.75,15.61-18.64,11.49-14.48,17.49-22.61,12.07-16.84,17.81-26.11a265.64,265.64,0,0,0,15.92-29.13A142.45,142.45,0,0,0,1383,348a78.62,78.62,0,0,0,1.42-15.56,61.1,61.1,0,0,0-.51-7.47c-.15-1.23-.48-2.4-.69-3.59l-.34-1.79c-.15-.58-.36-1.14-.53-1.71a46.69,46.69,0,0,0-9.9-18.45l-1.39-1.61-.69-.8-.16-.19-.13-.13-2.58-2.57-1.28-1.28-1.34-1.13-2.67-2.25c-1.89-1.22-3.59-2.78-5.51-3.77a41.83,41.83,0,0,0-11.42-5c-7.76-2.17-15.93-1.77-23.6,0a93.81,93.81,0,0,0-21,7.89,168.63,168.63,0,0,0-15.86,9.2c-4.32,2.84-7.73,5.21-10,6.87l-2.5,1.86q1.95,1.29,3.66,2.54a119.34,119.34,0,0,1,10.26,8.11c2.27,2,3.36,3.16,3.36,3.16l-4.12-2c-2.72-1.24-6.67-3.08-11.77-5.15s-11.32-4.42-18.54-6.57a145.31,145.31,0,0,0-24.32-5.29c-2.22-.32-4.5-.41-6.8-.65-2.3-.05-4.64-.26-7-.13a74.63,74.63,0,0,0-14.33,1.43,65.66,65.66,0,0,0-27.42,12.19l-3.12,2.46c-1,.84-2,1.82-3,2.72l-1.48,1.38-.19.18,0,0-.21.24-.76.84-3.07,3.39c-.82,1.05-1.39,2-2.13,3-.34.49-.71.95-1,1.46l-1,1.71c-.59,1.16-1.36,2.23-1.84,3.45l-1.51,3.62c-.43,1.26-.82,2.54-1.16,3.85l-1.6,9.07c-.09.94-.16,1.87-.19,2.82a75.23,75.23,0,0,0,1.72,16.81c2.42,11.33,7.26,22.43,12.85,33A232.19,232.19,0,0,0,1187,433.83c7,9.28,14.37,17.82,21.61,25.74s14.5,15.07,21.34,21.55c6.12,5.83,33.42,29,38.79,33.55h0C1270.52,512.7,1290.56,493.1,1293.35,489.92Z"/><path class="r" d="M492,545.87q-22.71,4.49-42.12-6.94c-13-7.61-24.39-18.37-34.39-32.79s-18.38-31.45-25.71-50.37a354.06,354.06,0,0,1-16.68-58.94,459.37,459.37,0,0,1-8.6-75.83c-.72-25.32.47-48.19,4.26-68.75s8.92-38,15.48-51.73,15-21.66,25.35-23.7a44.58,44.58,0,0,1,7.78-.41,15,15,0,0,1,8.42,2.86l-.18,6.26c-5.11,6.67-9.69,16.06-13.62,28.73s-6.73,27.36-8.42,44.11-1.66,34.85-.64,54.45A420.4,420.4,0,0,0,410.51,373,426.25,426.25,0,0,0,424,423a269.4,269.4,0,0,0,19.82,45.87,183.71,183.71,0,0,0,27.67,38.66,123.88,123.88,0,0,0,36.75,26.67l.43,2.18c-3.38,4.63-9.24,7.49-18.18,9.27Z"/><path class="p" d="M501.9,178.28a3.14,3.14,0,0,0-1.32-2.47,8.29,8.29,0,0,0-3.46-1.48,39,39,0,0,0-4.94-.83c-1.81-.16-3.62-.33-5.43-.33q-10.12,0-14.32,2c-2.8,1.32-4.11,2.8-4.11,4.28,0,1.81,1.64,3,4.93,3.62a63.78,63.78,0,0,0,12.19,1,38.38,38.38,0,0,1,5.43.33,1.86,1.86,0,0,1,1.81,2,7.81,7.81,0,0,1-.82,2.64,6.47,6.47,0,0,1-3,3,18.29,18.29,0,0,0-4.44-.49,20.15,20.15,0,0,0-8.07,1.48c-2.3,1-3.46,2.3-3.46,3.95,0,1.15.83,2.3,2.47,3.45s4.94,1.65,9.72,1.65c5.43,0,9.38-.66,11.85-2.14s3.62-3,3.62-4.44l.66-.33a7.43,7.43,0,0,1,2.47,2.63,6.76,6.76,0,0,1,.82,2.8,3.68,3.68,0,0,1-1.81,3,13.85,13.85,0,0,1-4.44,2,32.75,32.75,0,0,1-5.93,1c-2.14.16-4.28.32-6.26.32a60.3,60.3,0,0,1-7.57-.49,29.94,29.94,0,0,1-7.08-1.81,16.68,16.68,0,0,1-5.1-3,5.15,5.15,0,0,1-2-4,5.8,5.8,0,0,1,1.49-3.79,11.44,11.44,0,0,1,4.11-3,29.41,29.41,0,0,1,6.09-2,35.25,35.25,0,0,1,7.25-.66v-.66c-1.82,0-4.12-.16-6.92-.32a45.44,45.44,0,0,1-8.23-1.32,22.1,22.1,0,0,1-6.91-3,6.57,6.57,0,0,1-3-5.77,7.87,7.87,0,0,1,2.14-5.43,17.35,17.35,0,0,1,6.09-4.11,43.59,43.59,0,0,1,9.22-2.64,60.75,60.75,0,0,1,11.36-1,85.65,85.65,0,0,1,9.55.5,43.17,43.17,0,0,1,7.74,1.48,17.29,17.29,0,0,1,5.26,2.47c1.32,1,2,2,2,3.13a2.9,2.9,0,0,1-1,2.14,10.21,10.21,0,0,1-2.14,1.64,13.82,13.82,0,0,1-2.8,1.16,9.51,9.51,0,0,1-3,.49l-.66-.49Z"/><path class="p" d="M518.69,200.17c0-3.46,1.48-7.24,4.28-11.36a55.76,55.76,0,0,1,10.37-11.36,64.14,64.14,0,0,1,13.33-8.72q7.16-3.47,12.84-3.46a9.67,9.67,0,0,1,5.76,1.48,4.62,4.62,0,0,1,2,3.79,6.72,6.72,0,0,1-2,4.44,12.46,12.46,0,0,1-5.6,3.46l-.82-.33a5.12,5.12,0,0,0-2-4,6.61,6.61,0,0,0-4-1.15,16.7,16.7,0,0,0-8.06,2.47,42.79,42.79,0,0,0-8.4,6.25,39.28,39.28,0,0,0-6.75,8.07c-1.81,3-2.79,5.6-2.79,8.07a3.83,3.83,0,0,0,1,2.79,4.82,4.82,0,0,0,3.46,1,19.62,19.62,0,0,0,7.41-1.64,66.27,66.27,0,0,0,8.39-4.12q4.2-2.47,8.4-5.43l7.57-5.6c2.31-1.81,4.12-3.29,5.6-4.61a36.5,36.5,0,0,1,3-2.47h.82a5.75,5.75,0,0,1,2,1c.66.49,1,1.65,1,3.29V191a30.76,30.76,0,0,0,1,7.24,9.93,9.93,0,0,0,3.63,5.93v.66a3.83,3.83,0,0,1-2,2,6.6,6.6,0,0,1-2.47.5,5,5,0,0,1-3.95-1.81,11.43,11.43,0,0,1-2.3-4.94,32.34,32.34,0,0,1-1-6.26c-.17-2.3-.17-4.44-.17-6.25l-.82-.33L562,192.1a109.21,109.21,0,0,1-8.73,6.59,57.11,57.11,0,0,1-10.86,5.92,29.59,29.59,0,0,1-11.52,2.47q-5.19,0-7.9-2.47a8,8,0,0,1-2.64-6.25Z"/><path class="p" d="M665.85,205.93a5.67,5.67,0,0,1-4.94,2.47,4.73,4.73,0,0,1-3.13-1,6.66,6.66,0,0,1-2-3,28.6,28.6,0,0,1-1.16-4.44l-.82-5.27c-.33-2-.66-3.62-.82-4.78s-.66-1.81-1.32-1.81c-1.15,0-2.3.83-3.29,2.64s-1.81,3.45-2.47,4.94l-1.81,3.78a21.12,21.12,0,0,1-2.47,4.12,14.22,14.22,0,0,1-3.13,3.12,6,6,0,0,1-3.46,1.32,3.07,3.07,0,0,1-2.63-1.15,12.77,12.77,0,0,1-1.65-3,23.39,23.39,0,0,1-1.15-4.28c-.33-1.65-.66-3.3-.82-4.94-.5-2.8-.82-4.94-1.15-6.26s-.66-2-1.16-2-1.31.82-2.14,2.47-2,3.78-3.45,6.25a67,67,0,0,1-5.6,8.4,9.13,9.13,0,0,1-7.24,3.78q-4.2,0-7.41-5.43c-2.14-3.62-3.13-9.38-3.13-17.28a39.18,39.18,0,0,1,.5-5.93,26,26,0,0,1,1.48-5.76,12.72,12.72,0,0,1,2.8-4.28,6.07,6.07,0,0,1,4.44-1.81,5.35,5.35,0,0,1,3.46,1.48v1c-1.16.82-2.14,2.47-3.13,4.94a25,25,0,0,0-1.48,9.21c0,1.81.16,3.63.33,5.44a21.75,21.75,0,0,0,1,4.93,16.33,16.33,0,0,0,1.82,3.79,2.88,2.88,0,0,0,2.46,1.48c1.16,0,2.31-.82,3.3-2.47s2-3.62,3.12-5.92c1-2.14,2-4.28,2.8-6.42s1.65-4.12,2.47-5.76a33.64,33.64,0,0,1,2.47-4.28,3.47,3.47,0,0,1,3-1.65c1.49,0,2.47,1.15,3,3.46s1,5.59,1.48,9.87l1.15,10.37c.17,2,.82,3,1.81,3,1.15,0,2.47-1.16,3.79-3.46s2.63-4.61,3.78-7.08l4.94-10.2q2-4,4.94-4c1.81,0,3.29,1.32,4.28,4.12a95.75,95.75,0,0,1,2.64,9.38q.48,2.72,1,5.44a36.18,36.18,0,0,0,1.32,4.93,14.65,14.65,0,0,0,1.65,3.63,3.59,3.59,0,0,0,2.3,1.64v.66Zm-1.16-39.18c0,.83-.49,1.48-1.64,2a21.07,21.07,0,0,1-4.12,1.15,48.85,48.85,0,0,1-5.1.66c-1.81.16-3.46.16-4.94.16-2.8,0-6.25-.16-10.2-.49s-8.07-.82-12.35-1.48c-7.57-1.15-13.66-2.31-18.27-3.29s-7.41-2-8.23-3a2.59,2.59,0,0,1-.66-2,4.53,4.53,0,0,1,.49-2.14,5.08,5.08,0,0,1,1.48-1.81,3.45,3.45,0,0,1,2.14-.83l.66.17a35,35,0,0,0,10.21,4.61,91.49,91.49,0,0,0,12.84,3c3.78.49,7.41.82,11,1s6.42.33,8.23.33a20.19,20.19,0,0,0,4.77-.5,6.11,6.11,0,0,0,3.29-2l1.81-1.81a2.73,2.73,0,0,1,2-.83,5.94,5.94,0,0,1,4.28,2.31,6.36,6.36,0,0,1,2,4Z"/><path class="p" d="M706.34,167.58c-2,0-4.28,0-6.92.16s-5.1.33-7.57.66a25.37,25.37,0,0,0-6.09,1.48c-1.65.66-2.47,1.48-2.47,2.63,0,1,.82,2,2.31,3s4.28,1.15,8.39.66l.33.65a8.77,8.77,0,0,1-3.13,2.64,13.2,13.2,0,0,1-6.75,1.48c-3.12,0-5.59-.66-7.4-2.14a6.7,6.7,0,0,1-2.64-5.43,6.86,6.86,0,0,1,2.8-5.43,19.32,19.32,0,0,1,6.91-3.46,49.66,49.66,0,0,1,9.06-1.65q4.94-.5,8.89-.49c2.47,0,4.77,0,6.91.16a11.27,11.27,0,0,1,4.45,1v2.47A18,18,0,0,0,708,173.5a25.52,25.52,0,0,0-1.48,8.56c0,1.48.17,3,.33,4.61s.33,3.13.5,4.61H708a16,16,0,0,1,1.32-3.95,16.79,16.79,0,0,1,2.8-4.12,13.21,13.21,0,0,1,4.44-3.29,16.76,16.76,0,0,1,6.92-1.31,19.79,19.79,0,0,1,9.38,2,14.51,14.51,0,0,1,5.76,5.1,20.89,20.89,0,0,1,2.8,7.41,50.37,50.37,0,0,1,.82,8.89,14.37,14.37,0,0,1-.49,4,6.52,6.52,0,0,1-1.65,3,7.29,7.29,0,0,1-3.78,1.65,34.64,34.64,0,0,1-6.59.49,23.83,23.83,0,0,1-3.12-.16l-4.28-.49-4.61-.33a37.68,37.68,0,0,0-4.12-.17h-2a8.54,8.54,0,0,0-2,.33l-.49-.49c.49-1.15,1.81-2,4-2.64a44.22,44.22,0,0,1,7.24-1.48,62.85,62.85,0,0,1,7.74-.49h5.76c0-2.31,0-4.61-.17-7.08a25.76,25.76,0,0,0-1.15-6.58,11,11,0,0,0-3.13-4.94,8.56,8.56,0,0,0-5.92-2,9.4,9.4,0,0,0-5.93,1.65,13.14,13.14,0,0,0-3.46,3.95,22.7,22.7,0,0,0-2,4.61,35.69,35.69,0,0,0-1,3.95l-.49.49-5.11.66c-.82,0-1.64-.66-2.3-1.81a21.28,21.28,0,0,1-1.65-4.28,27.14,27.14,0,0,1-1-5.27c-.17-1.81-.33-3.45-.33-4.94a27.4,27.4,0,0,1,2.3-11.35q2.22-5,5.43-5.44l-.65-.49Z"/><path class="p" d="M767.73,181.07a50.13,50.13,0,0,1,7.41-6.91,71.65,71.65,0,0,1,8.56-5.76,52.39,52.39,0,0,1,8.89-4,26.33,26.33,0,0,1,8.23-1.48,8.68,8.68,0,0,1,5.27,1.48c1.32,1,2,3,2,5.92a32.25,32.25,0,0,1-2.47,11.53,50.56,50.56,0,0,1-6.74,12A38.09,38.09,0,0,1,789,203.3a21.49,21.49,0,0,1-11.85,3.78c-4.45,0-7.74-1.64-9.88-5.1-.16,2.14-.33,4.45-.49,6.91s-.33,4.94-.5,7.41-.16,4.61-.16,6.59v4.61c0,13,.66,22.71,2,29.3s3.3,9.87,5.93,9.87v.66a5.93,5.93,0,0,1-2.47,2.47,7.41,7.41,0,0,1-3.29.82,5.1,5.1,0,0,1-4.12-1.81,11.62,11.62,0,0,1-2.3-4.77,35.93,35.93,0,0,1-1-6.58c-.16-2.47-.16-4.94-.16-7.41v-40c0-2.64,0-5.6-.17-8.73s-.33-6.25-.49-9.22-.33-5.76-.5-8.23-.16-4.44-.16-5.76a18.84,18.84,0,0,1,2.3-9.71c1.48-2.47,4.28-3.79,8.4-3.79l.16.83a8.85,8.85,0,0,0-1.31,2.79,24.17,24.17,0,0,0-.66,4c-.17,1.48-.33,3-.5,4.44a35.44,35.44,0,0,0-.16,4l.66.17Zm2,15.64a4.58,4.58,0,0,1,3,1,27.88,27.88,0,0,1,2.31,2c.66.65,1.48,1.31,2.3,2a4.58,4.58,0,0,0,3,1c2.31,0,4.61-1.15,6.92-3.62a42.19,42.19,0,0,0,6.09-8.56,65.06,65.06,0,0,0,4.44-9.88,25.65,25.65,0,0,0,1.82-7.41c0-2.47-1.32-3.78-4-3.78-2.46,0-5.26,1-8.56,3.12a68,68,0,0,0-17.28,16.3,22.81,22.81,0,0,0-4.12,7.9l.33.5a8.56,8.56,0,0,1,2.31-1,7.13,7.13,0,0,1,1.81-.17Z"/><path class="p" d="M648.74,65.92c-5.61,2.81-16.83,6.32-33.67,11.23S576.5,89.07,549.85,98.89s-57.51,22.44-92.58,38.57-73.64,36.47-116.42,61c-43.48,24.55-83.46,49.79-119.23,75.74S155,324.72,129,347.87,82.75,392.05,68.72,411s-21,33.66-21,44.18c0,7.72,2.8,13.33,8.41,17.53a39.88,39.88,0,0,0,20.34,7.72v2.8c-7.72,10.53-16.13,17.54-24.54,21s-15.43,4.9-21,4.9c-11.22,0-18.93-4.2-23.84-11.92s-7-17.53-7-29.46c0-23.14,7.72-47,23.84-72.23s38.57-51.2,68-77.85,64.53-54,105.9-82.76,87-57.51,137.47-87l83.46-47q42.09-23.14,82.06-42.08T576.5,25.25A497.63,497.63,0,0,1,641,3.51q4.2-1.06,10.51-2.11A78.45,78.45,0,0,1,663.47,0a11.32,11.32,0,0,1,6.31,2.1c2.11,1.41,3.51,7,3.51,16.13,0,14.73-2.81,25.25-8.41,32.26s-9.83,11.23-13.34,13.33Z"/></svg>
