<svg xmlns="http://www.w3.org/2000/svg" viewBox="0 0 1451.34 1451.34"><defs><style>.t{fill:none;}.p{fill:#13042b;}.r{fill:#9c0000;}</style></defs><path class="t" d="M116.84,530.59,124,489.9A247.61,247.61,0,0,0,116.84,530.59Z"/><path class="p" d="M1410.72,203.7l-346.54-61.11c4.47,2.09,8.9,4.27,13.18,6.73,13.07,6.41,24.63,14.71,36.69,22.83l16.7,13.5,8.35,6.88,7.72,7.36,15.42,14.93,1,.93c.92,1-1.39-1.59,2.19,2.38l.38.45,1.53,1.81,3.08,3.63,6.15,7.28c7.71,8.18,17.86,23.23,26.87,36.51,4.63,6.79,7.64,13.5,11.5,20.33,3.65,6.81,7.48,13.55,10.18,20.87q4.4,10.8,8.78,21.67c2.46,7.39,4.48,14.92,6.69,22.43,1,3.75,2.18,7.52,3,11.31l2.06,11.47c1.24,7.67,2.93,15.34,3.67,23,1.23,15.38,2.79,30.85,2.11,46.07.27,15.39-1.57,30.31-3,45.35-.68,7.52-2.33,14.73-3.55,22.11-1.39,7.3-2.42,14.75-4.39,21.8C1227.05,591.74,1205,644.9,1179,693.76s-56,93.56-86.69,135a1433,1433,0,0,1-94.75,113.49c-15.71,17.33-31.57,33.61-47.06,49.16l-22.91,22.79L905,1035.59c-29.61,27.79-57.58,52.26-82.87,73.3s-47.83,38.73-66.48,53.14c-12.37,9.33-23,17.21-31.82,23.62,256.84,9.4,437,31.35,437,56.93,0,34.14-320.95,61.82-716.85,61.82q-43,0-84.7-.44l831.61,146.64a48.82,48.82,0,0,0,56.39-39.48l203-1151A48.81,48.81,0,0,0,1410.72,203.7Z"/><path class="p" d="M494.52,1180.92q-27.33-19.53-57.22-42.4c-34.18-26.17-69.53-56.68-106.12-90.07A1299.16,1299.16,0,0,1,222.37,936.28c-35.24-41.52-69.81-86.55-99.47-136.68A724.65,724.65,0,0,1,83,722.77L.35,1191.25c-.17.94-.24,1.86-.35,2.79,122.09-8.31,276.29-13.28,444-13.28Q469.45,1180.76,494.52,1180.92Z"/><path class="p" d="M328,239.58c26.71-3.1,52.77-3.73,77.43-1.41a416.46,416.46,0,0,1,69.92,11.7c43.81,10.77,81.42,26.71,113.26,42.78a608,608,0,0,1,59.9,34.78c1.53-3,3.82-7.22,7-12.63a405.54,405.54,0,0,1,31.39-46.51,451.46,451.46,0,0,1,60.41-64.44A372,372,0,0,1,847.5,139.78a292.48,292.48,0,0,1,69.38-19.5c4-.61,8.07-1.1,12.17-1.52L259.69.74A48.82,48.82,0,0,0,203.3,40.22L155,314l15.58-12A336.29,336.29,0,0,1,328,239.58Z"/><path class="r" d="M742.83,1149.13c15.71-17.39,34.62-38.63,55.68-63.44,21.27-24.6,44.83-52.66,70-83.54s51.5-64.9,78.43-101.3,54.09-75.51,79.79-117A1188.4,1188.4,0,0,0,1098,653.24c20.57-45.52,37.47-92.87,46.57-140.07,4.05-23.57,7.09-47,6.39-69.73.34-11.47-1.31-22.45-2.31-33.5-.64-5.49-2.12-10.72-3.07-16.08l-1.55-8c-.66-2.61-1.62-5.12-2.35-7.69-5-20.82-15.19-40-25.49-57.46-5.84-7.82-9.14-14.73-18.9-25.21l-6.22-7.23-3.1-3.6-.72-.84-.59-.58-11.55-11.52-5.72-5.74-6-5.05-11.94-10.11c-8.46-5.48-16.11-12.44-24.68-16.87a189,189,0,0,0-51.23-22.21c-34.75-9.73-71.39-7.91-105.74,0s-66.34,21.4-94.1,35.34a757.4,757.4,0,0,0-71.07,41.25c-19.38,12.73-34.63,23.34-45,30.78l-11.21,8.32q8.73,5.82,16.4,11.39a539.3,539.3,0,0,1,46,36.37c10.16,8.89,15.08,14.16,15.08,14.16l-18.5-9c-12.16-5.58-29.87-13.83-52.76-23.07s-50.73-19.83-83.09-29.47c-32.26-9.79-69-18.79-109-23.69-10-1.47-20.18-1.88-30.48-2.94-10.32-.21-20.81-1.15-31.38-.58A331.34,331.34,0,0,0,336.53,307a294,294,0,0,0-122.92,54.63l-14,11c-4.61,3.78-8.83,8.15-13.3,12.2l-6.66,6.19-.84.77-.17.16-1,1.06-3.42,3.78q-6.84,7.55-13.73,15.18c-3.67,4.7-6.24,8.89-9.53,13.3-1.55,2.2-3.2,4.26-4.73,6.57l-4.23,7.65c-2.67,5.18-6.13,10-8.27,15.45L127,471.21q-2.9,8.51-5.21,17.26l-7.17,40.69c-.38,4.17-.7,8.36-.86,12.6a337.38,337.38,0,0,0,7.74,75.36c10.81,50.76,32.51,100.53,57.59,147.71,25.49,47.11,55.55,91.54,87,132.91,31.26,41.56,64.41,79.84,96.86,115.34s65,67.57,95.62,96.62c27.43,26.09,149.8,129.77,173.85,150.38h0C640.51,1251.23,730.33,1163.39,742.83,1149.13Z"/></svg>
